<svg xmlns="http://www.w3.org/2000/svg" viewBox="0 0 499.81 154.95"><defs><style>.cls-1{isolation:isolate;}.cls-2,.cls-5{fill:#43a6dd;}.cls-3,.cls-5{mix-blend-mode:multiply;}.cls-4{fill:#f5897b;}</style></defs><title>JUDO_logo</title><g class="cls-1"><g id="Layer_1" data-name="Layer 1"><path class="cls-2" d="M575.7,383.05a69.92,69.92,0,0,1-70-70v-15a70,70,0,1,1,139.95,0v15a69.94,69.94,0,0,1-70,70Zm0-135a50,50,0,0,0-50,50v15a50,50,0,1,0,99.95,0v-15a50,50,0,0,0-50-50Z" transform="translate(-145.87 -228.1)"/><path class="cls-2" d="M575.7,323.07a10,10,0,0,1-10-10v-15a10,10,0,1,1,20,0v15A10,10,0,0,1,575.7,323.07Z" transform="translate(-145.87 -228.1)"/><g class="cls-3"><path class="cls-4" d="M455.75,383.05h-60a10,10,0,0,1-10-10v-135a10,10,0,0,1,10-10h60a69.91,69.91,0,0,1,70,70v15a69.94,69.94,0,0,1-70,70Zm-50-20h50a50,50,0,0,0,50-50v-15a50,50,0,0,0-50-50h-50Z" transform="translate(-145.87 -228.1)"/><g class="cls-3"><path class="cls-4" d="M455.75,323.07a10,10,0,0,1-10-10v-15a10,10,0,1,1,20,0v15A10,10,0,0,1,455.75,323.07Z" transform="translate(-145.87 -228.1)"/></g></g><g class="cls-3"><path class="cls-4" d="M215.84,383.05a69.92,69.92,0,0,1-70-70,10,10,0,0,1,10-10h50v-65a10,10,0,0,1,10-10h60a10,10,0,0,1,10,10v75a70,70,0,0,1-70,70Zm-49-60a50,50,0,0,0,99-10v-65h-40v65a10,10,0,0,1-10,10Z" transform="translate(-145.87 -228.1)"/></g><path class="cls-5" d="M395.77,228.1H275.82a10,10,0,0,0-10,10v75a70,70,0,1,0,140,0v-75A10,10,0,0,0,395.77,228.1Zm-10,85a50,50,0,0,1-99.95,0v-65h40v65a10,10,0,0,0,20,0v-65h40Z" transform="translate(-145.87 -228.1)"/></g></g></svg>